<svg xmlns="http://www.w3.org/2000/svg" xmlns:xlink="http://www.w3.org/1999/xlink" width="150" zoomAndPan="magnify" viewBox="0 0 112.5 37.5" height="50" preserveAspectRatio="xMidYMid meet" version="1.0"><defs><g/><clipPath id="b03259da74"><path d="M 0.492188 0 L 111.511719 0 L 111.511719 37.007812 L 0.492188 37.007812 Z M 0.492188 0 " clip-rule="nonzero"/></clipPath><clipPath id="d8a0f49b52"><path d="M 4 7.863281 L 27.136719 7.863281 L 27.136719 14 L 4 14 Z M 4 7.863281 " clip-rule="nonzero"/></clipPath><clipPath id="51f8003991"><path d="M 0.492188 23 L 24 23 L 24 29.328125 L 0.492188 29.328125 Z M 0.492188 23 " clip-rule="nonzero"/></clipPath></defs><g clip-path="url(#b03259da74)"><path fill="#ffffff" d="M 0.492188 0 L 111.511719 0 L 111.511719 37.007812 L 0.492188 37.007812 Z M 0.492188 0 " fill-opacity="1" fill-rule="nonzero"/><path fill="#ffffff" d="M 0.492188 0 L 111.511719 0 L 111.511719 37.007812 L 0.492188 37.007812 Z M 0.492188 0 " fill-opacity="1" fill-rule="nonzero"/></g><g clip-path="url(#d8a0f49b52)"><path fill="#03a1fe" d="M 8.550781 7.863281 L 27.160156 7.863281 L 22.816406 13.738281 L 4.210938 13.738281 Z M 8.550781 7.863281 " fill-opacity="1" fill-rule="evenodd"/></g><path fill="#006ab3" d="M 4.210938 13.738281 L 13.515625 13.738281 L 8.804688 20.082031 L 4.71875 14.441406 Z M 4.210938 13.738281 " fill-opacity="1" fill-rule="evenodd"/><g clip-path="url(#51f8003991)"><path fill="#03a1fe" d="M 19.117188 29.132812 L 0.507812 29.132812 L 4.859375 23.257812 L 23.464844 23.257812 Z M 19.117188 29.132812 " fill-opacity="1" fill-rule="evenodd"/></g><path fill="#006ab3" d="M 23.464844 23.257812 L 14.164062 23.257812 L 18.863281 16.914062 L 22.960938 22.554688 Z M 23.464844 23.257812 " fill-opacity="1" fill-rule="evenodd"/><g fill="#006ab3" fill-opacity="1"><g transform="translate(28.873008, 23.630336)"><g><path d="M 0.859375 -6.125 C 0.859375 -8.007812 1.195312 -9.484375 1.875 -10.546875 C 2.5625 -11.617188 3.695312 -12.15625 5.28125 -12.15625 C 6.863281 -12.15625 7.992188 -11.617188 8.671875 -10.546875 C 9.359375 -9.484375 9.703125 -8.007812 9.703125 -6.125 C 9.703125 -4.21875 9.359375 -2.722656 8.671875 -1.640625 C 7.992188 -0.566406 6.863281 -0.03125 5.28125 -0.03125 C 3.695312 -0.03125 2.5625 -0.566406 1.875 -1.640625 C 1.195312 -2.722656 0.859375 -4.21875 0.859375 -6.125 Z M 7.4375 -6.125 C 7.4375 -6.925781 7.382812 -7.601562 7.28125 -8.15625 C 7.175781 -8.707031 6.96875 -9.15625 6.65625 -9.5 C 6.351562 -9.851562 5.894531 -10.03125 5.28125 -10.03125 C 4.675781 -10.03125 4.21875 -9.851562 3.90625 -9.5 C 3.59375 -9.15625 3.382812 -8.707031 3.28125 -8.15625 C 3.175781 -7.601562 3.125 -6.925781 3.125 -6.125 C 3.125 -5.289062 3.171875 -4.59375 3.265625 -4.03125 C 3.367188 -3.46875 3.578125 -3.015625 3.890625 -2.671875 C 4.210938 -2.328125 4.675781 -2.15625 5.28125 -2.15625 C 5.894531 -2.15625 6.359375 -2.328125 6.671875 -2.671875 C 6.992188 -3.015625 7.203125 -3.46875 7.296875 -4.03125 C 7.390625 -4.59375 7.4375 -5.289062 7.4375 -6.125 Z M 7.4375 -6.125 "/></g></g></g><g fill="#006ab3" fill-opacity="1"><g transform="translate(39.439963, 23.630336)"><g><path d="M 0.765625 -2.328125 L 0.765625 -4.125 L 6.125 -11.78125 L 8.78125 -11.78125 L 8.78125 -4.3125 L 10.21875 -4.3125 L 10.21875 -2.328125 L 8.78125 -2.328125 L 8.78125 0 L 6.5 0 L 6.5 -2.328125 Z M 6.640625 -9.328125 L 3.28125 -4.3125 L 6.640625 -4.3125 Z M 6.640625 -9.328125 "/></g></g></g><g fill="#006ab3" fill-opacity="1"><g transform="translate(50.252279, 23.630336)"><g/></g></g><g fill="#006ab3" fill-opacity="1"><g transform="translate(54.145368, 23.630336)"><g><path d="M 13.578125 -11.421875 L 13.578125 0 L 11.28125 0 L 11.28125 -7.421875 L 8.234375 0 L 6.5 0 L 3.421875 -7.421875 L 3.421875 0 L 1.125 0 L 1.125 -11.421875 L 3.734375 -11.421875 L 7.359375 -2.921875 L 11 -11.421875 Z M 13.578125 -11.421875 "/></g></g></g><g fill="#006ab3" fill-opacity="1"><g transform="translate(68.850773, 23.630336)"><g><path d="M 3.421875 -9.5625 L 3.421875 -6.703125 L 7.265625 -6.703125 L 7.265625 -4.890625 L 3.421875 -4.890625 L 3.421875 -1.859375 L 7.75 -1.859375 L 7.75 0 L 1.125 0 L 1.125 -11.4375 L 7.75 -11.4375 L 7.75 -9.5625 Z M 3.421875 -9.5625 "/></g></g></g><g fill="#006ab3" fill-opacity="1"><g transform="translate(77.552971, 23.630336)"><g><path d="M 5.125 -11.421875 C 6.320312 -11.421875 7.375 -11.1875 8.28125 -10.71875 C 9.195312 -10.25 9.898438 -9.578125 10.390625 -8.703125 C 10.890625 -7.835938 11.140625 -6.832031 11.140625 -5.6875 C 11.140625 -4.539062 10.890625 -3.539062 10.390625 -2.6875 C 9.898438 -1.832031 9.195312 -1.171875 8.28125 -0.703125 C 7.375 -0.234375 6.320312 0 5.125 0 L 1.125 0 L 1.125 -11.421875 Z M 5.03125 -1.953125 C 6.238281 -1.953125 7.164062 -2.273438 7.8125 -2.921875 C 8.46875 -3.578125 8.796875 -4.5 8.796875 -5.6875 C 8.796875 -6.875 8.46875 -7.800781 7.8125 -8.46875 C 7.164062 -9.144531 6.238281 -9.484375 5.03125 -9.484375 L 3.421875 -9.484375 L 3.421875 -1.953125 Z M 5.03125 -1.953125 "/></g></g></g><g fill="#006ab3" fill-opacity="1"><g transform="translate(89.281308, 23.630336)"><g><path d="M 3.421875 -11.421875 L 3.421875 0 L 1.125 0 L 1.125 -11.421875 Z M 3.421875 -11.421875 "/></g></g></g><g fill="#006ab3" fill-opacity="1"><g transform="translate(93.828699, 23.630336)"><g><path d="M 8.125 -2.171875 L 3.578125 -2.171875 L 2.828125 0 L 0.421875 0 L 4.53125 -11.4375 L 7.203125 -11.4375 L 11.296875 0 L 8.890625 0 Z M 7.515625 -4.015625 L 5.859375 -8.78125 L 4.203125 -4.015625 Z M 7.515625 -4.015625 "/></g></g></g></svg>